<mxfile host="app.diagrams.net" modified="2024-06-13T07:53:49.482Z" agent="Mozilla/5.0 (Windows NT 10.0; Win64; x64) AppleWebKit/537.36 (KHTML, like Gecko) Chrome/125.0.0.0 Safari/537.36" etag="qoUshPQ35zYrbb2hzlan" version="24.3.1" type="github">
  <diagram id="C5RBs43oDa-KdzZeNtuy" name="Page-1">
    <mxGraphModel dx="1733" dy="884" grid="1" gridSize="10" guides="1" tooltips="1" connect="1" arrows="1" fold="1" page="1" pageScale="1" pageWidth="827" pageHeight="1169" math="0" shadow="0">
      <root>
        <mxCell id="WIyWlLk6GJQsqaUBKTNV-0" />
        <mxCell id="WIyWlLk6GJQsqaUBKTNV-1" parent="WIyWlLk6GJQsqaUBKTNV-0" />
        <mxCell id="nrs55E-X3QsoZcB24xdY-1" value="Mulai" style="strokeWidth=2;html=1;shape=mxgraph.flowchart.terminator;whiteSpace=wrap;" vertex="1" parent="WIyWlLk6GJQsqaUBKTNV-1">
          <mxGeometry x="201.25" y="20" width="70" height="30" as="geometry" />
        </mxCell>
        <mxCell id="nrs55E-X3QsoZcB24xdY-2" value="&lt;font style=&quot;font-size: 11px;&quot;&gt;Login/Registrasi&lt;/font&gt;" style="rounded=0;whiteSpace=wrap;html=1;" vertex="1" parent="WIyWlLk6GJQsqaUBKTNV-1">
          <mxGeometry x="166.25" y="90" width="140" height="30" as="geometry" />
        </mxCell>
        <mxCell id="nrs55E-X3QsoZcB24xdY-8" value="" style="endArrow=classic;html=1;rounded=0;entryX=0.5;entryY=0;entryDx=0;entryDy=0;exitX=0.5;exitY=1;exitDx=0;exitDy=0;exitPerimeter=0;" edge="1" parent="WIyWlLk6GJQsqaUBKTNV-1" source="nrs55E-X3QsoZcB24xdY-1" target="nrs55E-X3QsoZcB24xdY-2">
          <mxGeometry width="50" height="50" relative="1" as="geometry">
            <mxPoint x="235.75" y="50" as="sourcePoint" />
            <mxPoint x="236" y="90" as="targetPoint" />
          </mxGeometry>
        </mxCell>
        <mxCell id="nrs55E-X3QsoZcB24xdY-16" value="&lt;font style=&quot;font-size: 10px;&quot;&gt;Masukan nama dan Password&lt;/font&gt;" style="shape=parallelogram;perimeter=parallelogramPerimeter;whiteSpace=wrap;html=1;fixedSize=1;" vertex="1" parent="WIyWlLk6GJQsqaUBKTNV-1">
          <mxGeometry x="140" y="160" width="170" height="30" as="geometry" />
        </mxCell>
        <mxCell id="nrs55E-X3QsoZcB24xdY-17" value="&lt;font style=&quot;font-size: 10px;&quot;&gt;Masukan nama dan Password&lt;/font&gt;" style="shape=parallelogram;perimeter=parallelogramPerimeter;whiteSpace=wrap;html=1;fixedSize=1;" vertex="1" parent="WIyWlLk6GJQsqaUBKTNV-1">
          <mxGeometry x="390" y="245" width="170" height="30" as="geometry" />
        </mxCell>
        <mxCell id="nrs55E-X3QsoZcB24xdY-18" value="&lt;font style=&quot;font-size: 11px;&quot;&gt;Pemeriksaan&amp;nbsp;&lt;/font&gt;&lt;div&gt;&lt;font style=&quot;font-size: 11px;&quot;&gt;Password&lt;/font&gt;&lt;/div&gt;" style="rhombus;whiteSpace=wrap;html=1;" vertex="1" parent="WIyWlLk6GJQsqaUBKTNV-1">
          <mxGeometry x="176.25" y="220" width="120" height="80" as="geometry" />
        </mxCell>
        <mxCell id="nrs55E-X3QsoZcB24xdY-19" value="" style="endArrow=classic;html=1;rounded=0;" edge="1" parent="WIyWlLk6GJQsqaUBKTNV-1">
          <mxGeometry width="50" height="50" relative="1" as="geometry">
            <mxPoint x="296.245" y="259.29" as="sourcePoint" />
            <mxPoint x="400" y="259.79" as="targetPoint" />
            <Array as="points">
              <mxPoint x="362.62" y="259.29" />
            </Array>
          </mxGeometry>
        </mxCell>
        <mxCell id="nrs55E-X3QsoZcB24xdY-20" value="" style="endArrow=classic;html=1;rounded=0;entryX=0.5;entryY=0;entryDx=0;entryDy=0;exitX=0.5;exitY=1;exitDx=0;exitDy=0;exitPerimeter=0;" edge="1" parent="WIyWlLk6GJQsqaUBKTNV-1">
          <mxGeometry width="50" height="50" relative="1" as="geometry">
            <mxPoint x="235.75" y="120" as="sourcePoint" />
            <mxPoint x="235.75" y="160" as="targetPoint" />
          </mxGeometry>
        </mxCell>
        <mxCell id="nrs55E-X3QsoZcB24xdY-21" value="" style="endArrow=classic;html=1;rounded=0;exitX=0.5;exitY=1;exitDx=0;exitDy=0;exitPerimeter=0;" edge="1" parent="WIyWlLk6GJQsqaUBKTNV-1">
          <mxGeometry width="50" height="50" relative="1" as="geometry">
            <mxPoint x="235.75" y="190" as="sourcePoint" />
            <mxPoint x="236" y="220" as="targetPoint" />
          </mxGeometry>
        </mxCell>
        <mxCell id="nrs55E-X3QsoZcB24xdY-22" value="" style="endArrow=classic;html=1;rounded=0;exitX=0.5;exitY=1;exitDx=0;exitDy=0;exitPerimeter=0;" edge="1" parent="WIyWlLk6GJQsqaUBKTNV-1">
          <mxGeometry width="50" height="50" relative="1" as="geometry">
            <mxPoint x="235.75" y="300" as="sourcePoint" />
            <mxPoint x="236" y="340" as="targetPoint" />
          </mxGeometry>
        </mxCell>
        <mxCell id="nrs55E-X3QsoZcB24xdY-23" value="&lt;font style=&quot;font-size: 11px;&quot;&gt;Sesuai&lt;/font&gt;" style="text;html=1;align=center;verticalAlign=middle;resizable=0;points=[];autosize=1;strokeColor=none;fillColor=none;" vertex="1" parent="WIyWlLk6GJQsqaUBKTNV-1">
          <mxGeometry x="230" y="300" width="60" height="30" as="geometry" />
        </mxCell>
        <mxCell id="nrs55E-X3QsoZcB24xdY-24" value="Beranda" style="rounded=0;whiteSpace=wrap;html=1;" vertex="1" parent="WIyWlLk6GJQsqaUBKTNV-1">
          <mxGeometry x="166.25" y="340" width="140" height="30" as="geometry" />
        </mxCell>
        <mxCell id="nrs55E-X3QsoZcB24xdY-25" value="" style="endArrow=classic;html=1;rounded=0;exitX=0.5;exitY=1;exitDx=0;exitDy=0;exitPerimeter=0;" edge="1" parent="WIyWlLk6GJQsqaUBKTNV-1">
          <mxGeometry width="50" height="50" relative="1" as="geometry">
            <mxPoint x="235.75" y="370" as="sourcePoint" />
            <mxPoint x="236" y="410" as="targetPoint" />
          </mxGeometry>
        </mxCell>
        <mxCell id="nrs55E-X3QsoZcB24xdY-26" value="&lt;font style=&quot;font-size: 11px;&quot;&gt;Pemeriksaan&amp;nbsp;&lt;/font&gt;&lt;div&gt;&lt;font style=&quot;font-size: 11px;&quot;&gt;Password&lt;/font&gt;&lt;/div&gt;" style="rhombus;whiteSpace=wrap;html=1;" vertex="1" parent="WIyWlLk6GJQsqaUBKTNV-1">
          <mxGeometry x="420" y="315" width="120" height="80" as="geometry" />
        </mxCell>
        <mxCell id="nrs55E-X3QsoZcB24xdY-27" value="" style="endArrow=classic;html=1;rounded=0;exitX=0;exitY=0.5;exitDx=0;exitDy=0;" edge="1" parent="WIyWlLk6GJQsqaUBKTNV-1" source="nrs55E-X3QsoZcB24xdY-26">
          <mxGeometry width="50" height="50" relative="1" as="geometry">
            <mxPoint x="300" y="380" as="sourcePoint" />
            <mxPoint x="310" y="355" as="targetPoint" />
          </mxGeometry>
        </mxCell>
        <mxCell id="nrs55E-X3QsoZcB24xdY-28" value="&lt;span style=&quot;font-size: 11px;&quot;&gt;Sesuai&lt;/span&gt;" style="text;html=1;align=center;verticalAlign=middle;resizable=0;points=[];autosize=1;strokeColor=none;fillColor=none;" vertex="1" parent="WIyWlLk6GJQsqaUBKTNV-1">
          <mxGeometry x="340" y="330" width="60" height="30" as="geometry" />
        </mxCell>
        <mxCell id="nrs55E-X3QsoZcB24xdY-29" value="" style="edgeStyle=elbowEdgeStyle;elbow=horizontal;endArrow=classic;html=1;curved=0;rounded=0;endSize=8;startSize=8;entryX=1;entryY=0.5;entryDx=0;entryDy=0;" edge="1" parent="WIyWlLk6GJQsqaUBKTNV-1" target="nrs55E-X3QsoZcB24xdY-17">
          <mxGeometry width="50" height="50" relative="1" as="geometry">
            <mxPoint x="480" y="420" as="sourcePoint" />
            <mxPoint x="580" y="330" as="targetPoint" />
            <Array as="points">
              <mxPoint x="600" y="350" />
            </Array>
          </mxGeometry>
        </mxCell>
        <mxCell id="nrs55E-X3QsoZcB24xdY-32" value="" style="endArrow=none;html=1;rounded=0;entryX=0.501;entryY=0.968;entryDx=0;entryDy=0;entryPerimeter=0;" edge="1" parent="WIyWlLk6GJQsqaUBKTNV-1">
          <mxGeometry width="50" height="50" relative="1" as="geometry">
            <mxPoint x="480" y="420" as="sourcePoint" />
            <mxPoint x="479.98" y="395" as="targetPoint" />
          </mxGeometry>
        </mxCell>
        <mxCell id="nrs55E-X3QsoZcB24xdY-33" value="&lt;font style=&quot;font-size: 11px;&quot;&gt;Tampilkan Daftar Tempat Jasa&lt;/font&gt;" style="rounded=0;whiteSpace=wrap;html=1;" vertex="1" parent="WIyWlLk6GJQsqaUBKTNV-1">
          <mxGeometry x="166.25" y="480" width="140" height="30" as="geometry" />
        </mxCell>
        <mxCell id="nrs55E-X3QsoZcB24xdY-34" value="Pilih Kategori" style="rounded=0;whiteSpace=wrap;html=1;" vertex="1" parent="WIyWlLk6GJQsqaUBKTNV-1">
          <mxGeometry x="166.25" y="410" width="140" height="30" as="geometry" />
        </mxCell>
        <mxCell id="nrs55E-X3QsoZcB24xdY-36" value="&lt;font style=&quot;font-size: 11px;&quot;&gt;Lihat Detail&lt;/font&gt;" style="rounded=0;whiteSpace=wrap;html=1;" vertex="1" parent="WIyWlLk6GJQsqaUBKTNV-1">
          <mxGeometry x="166.25" y="540" width="140" height="30" as="geometry" />
        </mxCell>
        <mxCell id="nrs55E-X3QsoZcB24xdY-38" value="&lt;font style=&quot;font-size: 11px;&quot;&gt;Booking/pemesanan&lt;/font&gt;" style="shape=parallelogram;perimeter=parallelogramPerimeter;whiteSpace=wrap;html=1;fixedSize=1;" vertex="1" parent="WIyWlLk6GJQsqaUBKTNV-1">
          <mxGeometry x="151.25" y="600" width="170" height="30" as="geometry" />
        </mxCell>
        <mxCell id="nrs55E-X3QsoZcB24xdY-39" value="&lt;font style=&quot;font-size: 11px;&quot;&gt;Konfirmasi &amp;amp; Notif&lt;/font&gt;" style="rounded=0;whiteSpace=wrap;html=1;" vertex="1" parent="WIyWlLk6GJQsqaUBKTNV-1">
          <mxGeometry x="166.25" y="660" width="140" height="30" as="geometry" />
        </mxCell>
        <mxCell id="nrs55E-X3QsoZcB24xdY-40" value="&lt;font style=&quot;font-size: 11px;&quot;&gt;Selesai&lt;/font&gt;" style="strokeWidth=2;html=1;shape=mxgraph.flowchart.terminator;whiteSpace=wrap;" vertex="1" parent="WIyWlLk6GJQsqaUBKTNV-1">
          <mxGeometry x="201.25" y="720" width="70" height="30" as="geometry" />
        </mxCell>
        <mxCell id="nrs55E-X3QsoZcB24xdY-41" value="" style="endArrow=classic;html=1;rounded=0;" edge="1" parent="WIyWlLk6GJQsqaUBKTNV-1">
          <mxGeometry width="50" height="50" relative="1" as="geometry">
            <mxPoint x="236" y="510" as="sourcePoint" />
            <mxPoint x="235.97" y="540" as="targetPoint" />
          </mxGeometry>
        </mxCell>
        <mxCell id="nrs55E-X3QsoZcB24xdY-42" value="" style="endArrow=classic;html=1;rounded=0;exitX=0.5;exitY=1;exitDx=0;exitDy=0;exitPerimeter=0;" edge="1" parent="WIyWlLk6GJQsqaUBKTNV-1">
          <mxGeometry width="50" height="50" relative="1" as="geometry">
            <mxPoint x="235.72" y="570" as="sourcePoint" />
            <mxPoint x="236" y="600" as="targetPoint" />
          </mxGeometry>
        </mxCell>
        <mxCell id="nrs55E-X3QsoZcB24xdY-43" value="" style="endArrow=classic;html=1;rounded=0;exitX=0.5;exitY=1;exitDx=0;exitDy=0;exitPerimeter=0;" edge="1" parent="WIyWlLk6GJQsqaUBKTNV-1">
          <mxGeometry width="50" height="50" relative="1" as="geometry">
            <mxPoint x="235.72" y="440" as="sourcePoint" />
            <mxPoint x="235.97" y="480" as="targetPoint" />
          </mxGeometry>
        </mxCell>
        <mxCell id="nrs55E-X3QsoZcB24xdY-45" value="" style="endArrow=classic;html=1;rounded=0;exitX=0.5;exitY=1;exitDx=0;exitDy=0;exitPerimeter=0;" edge="1" parent="WIyWlLk6GJQsqaUBKTNV-1">
          <mxGeometry width="50" height="50" relative="1" as="geometry">
            <mxPoint x="235.72" y="630" as="sourcePoint" />
            <mxPoint x="236" y="660" as="targetPoint" />
          </mxGeometry>
        </mxCell>
        <mxCell id="nrs55E-X3QsoZcB24xdY-48" value="" style="endArrow=classic;html=1;rounded=0;exitX=0.5;exitY=1;exitDx=0;exitDy=0;exitPerimeter=0;" edge="1" parent="WIyWlLk6GJQsqaUBKTNV-1">
          <mxGeometry width="50" height="50" relative="1" as="geometry">
            <mxPoint x="235.72" y="690" as="sourcePoint" />
            <mxPoint x="236" y="720" as="targetPoint" />
          </mxGeometry>
        </mxCell>
        <mxCell id="nrs55E-X3QsoZcB24xdY-52" value="Tidak Sesuai" style="text;html=1;align=center;verticalAlign=middle;resizable=0;points=[];autosize=1;strokeColor=none;fillColor=none;" vertex="1" parent="WIyWlLk6GJQsqaUBKTNV-1">
          <mxGeometry x="300" y="240" width="90" height="30" as="geometry" />
        </mxCell>
        <mxCell id="nrs55E-X3QsoZcB24xdY-59" value="&lt;font style=&quot;font-size: 11px;&quot;&gt;Tidak &lt;font style=&quot;&quot;&gt;sesuai&lt;/font&gt;&lt;/font&gt;" style="text;html=1;align=center;verticalAlign=middle;resizable=0;points=[];autosize=1;strokeColor=none;fillColor=none;" vertex="1" parent="WIyWlLk6GJQsqaUBKTNV-1">
          <mxGeometry x="490" y="395" width="80" height="30" as="geometry" />
        </mxCell>
        <mxCell id="nrs55E-X3QsoZcB24xdY-61" value="" style="endArrow=classic;html=1;rounded=0;exitX=0.5;exitY=1;exitDx=0;exitDy=0;exitPerimeter=0;entryX=0.5;entryY=0;entryDx=0;entryDy=0;" edge="1" parent="WIyWlLk6GJQsqaUBKTNV-1" target="nrs55E-X3QsoZcB24xdY-26">
          <mxGeometry width="50" height="50" relative="1" as="geometry">
            <mxPoint x="479.33000000000004" y="275" as="sourcePoint" />
            <mxPoint x="479.58000000000004" y="305" as="targetPoint" />
          </mxGeometry>
        </mxCell>
        <mxCell id="nrs55E-X3QsoZcB24xdY-62" value="&lt;span style=&quot;font-size: 11px;&quot;&gt;Sesuai&lt;/span&gt;" style="text;html=1;align=center;verticalAlign=middle;resizable=0;points=[];autosize=1;strokeColor=none;fillColor=none;" vertex="1" parent="WIyWlLk6GJQsqaUBKTNV-1">
          <mxGeometry x="470" y="285" width="60" height="30" as="geometry" />
        </mxCell>
      </root>
    </mxGraphModel>
  </diagram>
</mxfile>
